<svg width="44" height="41" viewBox="0 0 44 41" fill="none" xmlns="http://www.w3.org/2000/svg">
<path d="M22 21.6716L30.4852 30.1568L27.6568 32.9852L24 29.33V40.5H20V29.326L16.3431 32.9852L13.5147 30.1568L22 21.6716ZM22 0.5C29.1868 0.5 35.1088 5.91522 35.9082 12.8879C40.5716 14.1631 44 18.4312 44 23.5C44 29.2376 39.6072 33.9492 34.0012 34.4552L34.0018 30.4288C37.3932 29.9428 40 27.0258 40 23.5C40 19.634 36.866 16.5 33 16.5C32.5824 16.5 32.1734 16.5366 31.7774 16.608C31.9232 15.9284 32 15.2232 32 14.5C32 8.97716 27.5228 4.5 22 4.5C16.4772 4.5 12 8.97716 12 14.5C12 15.2232 12.0768 15.9284 12.2241 16.6066C11.8266 16.5366 11.4176 16.5 11 16.5C7.134 16.5 4 19.634 4 23.5C4 26.9006 6.42482 29.7348 9.63972 30.368L10.0001 30.4292L10.0008 34.4552C4.39392 33.9504 0 29.2384 0 23.5C0 18.4312 3.42848 14.1631 8.09296 12.8882C8.89122 5.91522 14.8132 0.5 22 0.5Z" fill="url(#paint0_linear_13_169)"/>
<defs>
<linearGradient id="paint0_linear_13_169" x1="22" y1="0.5" x2="22" y2="40.5" gradientUnits="userSpaceOnUse">
<stop stop-color="#FF6510"/>
<stop offset="1" stop-color="#FF6510" stop-opacity="0.86"/>
</linearGradient>
</defs>
</svg>
