<svg width="48" height="48" viewBox="0 0 48 48" fill="none" xmlns="http://www.w3.org/2000/svg">
<path d="M24 25.1716L32.4852 33.6568L29.6568 36.4852L26 32.83V44H22V32.826L18.3431 36.4852L15.5147 33.6568L24 25.1716ZM24 4C31.1868 4 37.1088 9.41522 37.9082 16.3879C42.5716 17.6631 46 21.9312 46 27C46 32.7376 41.6072 37.4492 36.0012 37.9552L36.0018 33.9288C39.3932 33.4428 42 30.5258 42 27C42 23.134 38.866 20 35 20C34.5824 20 34.1734 20.0366 33.7774 20.108C33.9232 19.4284 34 18.7232 34 18C34 12.4772 29.5228 8 24 8C18.4772 8 14 12.4772 14 18C14 18.7232 14.0768 19.4284 14.2241 20.1066C13.8266 20.0366 13.4176 20 13 20C9.134 20 6 23.134 6 27C6 30.4006 8.42482 33.2348 11.6397 33.868L12.0001 33.9292L12.0008 37.9552C6.39392 37.4504 2 32.7384 2 27C2 21.9312 5.42848 17.6631 10.093 16.3882C10.8912 9.41522 16.8132 4 24 4Z" fill="url(#paint0_linear_13_337)"/>
<defs>
<linearGradient id="paint0_linear_13_337" x1="24" y1="4" x2="24" y2="44" gradientUnits="userSpaceOnUse">
<stop/>
<stop offset="1" stop-color="#666666" stop-opacity="0.86"/>
</linearGradient>
</defs>
</svg>
